<?xml version="1.0" standalone="no"?>
<!DOCTYPE svg PUBLIC "-//W3C//DTD SVG 20010904//EN"
 "http://www.w3.org/TR/2001/REC-SVG-20010904/DTD/svg10.dtd">
<svg version="1.0" xmlns="http://www.w3.org/2000/svg"
 width="900.000000pt" height="900.000000pt" viewBox="0 0 900.000000 900.000000"
 preserveAspectRatio="xMidYMid meet">
<metadata>
Created by potrace 1.11, written by Peter Selinger 2001-2013
</metadata>
<g transform="translate(0.000000,900.000000) scale(0.100000,-0.100000)"
fill="#000000" stroke="none">
<path d="M6495 8070 c-452 -40 -881 -298 -1137 -685 -316 -476 -343 -1091 -71
-1588 142 -260 358 -478 608 -616 406 -224 898 -255 1325 -84 309 124 572 347
746 633 414 680 241 1566 -397 2040 -310 230 -683 334 -1074 300z m416 -191
c135 -27 200 -49 334 -114 146 -70 263 -156 377 -273 189 -197 300 -405 360
-679 29 -132 31 -399 4 -518 -32 -144 -68 -248 -121 -355 -192 -383 -540 -648
-959 -732 -135 -27 -383 -29 -506 -3 -576 118 -995 543 -1096 1112 -22 118
-21 341 0 461 51 284 180 529 386 732 155 152 289 238 490 313 230 86 486 105
731 56z"/>
<path d="M8368 6638 c-9 -7 -19 -23 -23 -35 -5 -18 -1 -25 19 -35 l26 -11 0
-3279 0 -3278 25 0 25 0 0 3288 c0 3173 -1 3289 -18 3322 -22 40 -32 45 -54
28z"/>
<path d="M3312 3734 c-195 -35 -430 -151 -612 -303 -30 -25 -140 -129 -245
-230 -181 -176 -294 -271 -360 -304 -16 -8 -60 -20 -96 -26 -185 -31 -362 74
-593 354 -36 43 -66 83 -66 87 0 4 -4 8 -10 8 -23 0 -5 -201 31 -344 92 -364
354 -680 754 -909 407 -233 926 -260 1453 -76 226 79 521 283 739 512 l62 65
53 -57 c160 -171 364 -332 548 -433 154 -85 405 -161 638 -193 147 -21 396
-16 535 10 326 60 635 231 888 491 115 119 162 182 228 306 94 176 138 329
148 516 3 61 4 112 1 112 -3 0 -34 -37 -71 -82 -91 -115 -181 -206 -257 -262
-86 -63 -126 -83 -206 -102 -56 -13 -79 -13 -138 -3 -39 6 -84 18 -101 27 -66
33 -189 138 -356 304 -293 291 -467 412 -709 492 -307 102 -585 62 -859 -122
-94 -63 -263 -226 -307 -297 -16 -25 -32 -45 -36 -45 -4 0 -22 21 -39 48 -46
66 -211 229 -289 284 -220 156 -481 218 -728 172z"/>
</g>
</svg>
